<svg width="43" height="43" viewBox="0 0 43 43" fill="none" xmlns="http://www.w3.org/2000/svg">
<g clip-path="url(#clip0_37_642)">
<path d="M42.7849 21.4099C42.7849 9.61393 33.2222 0.0512695 21.4263 0.0512695C9.63029 0.0512695 0.067627 9.61377 0.067627 21.4099C0.067627 32.0705 7.87822 40.9068 18.089 42.5091V27.5839H12.6659V21.4099H18.089V16.7043C18.089 11.3513 21.2778 8.39449 26.1564 8.39449C28.4933 8.39449 30.9375 8.81165 30.9375 8.81165V14.0679H28.2443C25.5909 14.0679 24.7636 15.7143 24.7636 17.4035V21.4099H30.6872L29.7403 27.5839H24.7636V42.5091C34.9743 40.9068 42.7849 32.0707 42.7849 21.4099Z" fill="#1877F2"/>
<path d="M29.7407 27.4907L30.6876 21.3167H24.7639V17.3103C24.7639 15.6209 25.5914 13.9747 28.2447 13.9747H30.9379V8.71843C30.9379 8.71843 28.4937 8.30127 26.1567 8.30127C21.2781 8.30127 18.0894 11.2581 18.0894 16.6111V21.3167H12.6663V27.4907H18.0894V42.4159C19.1934 42.5889 20.3092 42.6756 21.4266 42.6753C22.5441 42.6757 23.6599 42.5889 24.7639 42.4159V27.4907H29.7407Z" fill="white"/>
</g>
<defs>
<clipPath id="clip0_37_642">
<rect width="42.7173" height="42.7173" fill="white" transform="translate(0.067627 0.0512695)"/>
</clipPath>
</defs>
</svg>
