<svg width="44" height="43" viewBox="0 0 44 43" fill="none" xmlns="http://www.w3.org/2000/svg">
<g clip-path="url(#clip0_37_637)">
<path d="M33.0558 0.0512695H10.3622C4.83281 0.0512695 0.350342 4.53373 0.350342 10.0631V32.7567C0.350342 38.2861 4.83281 42.7686 10.3622 42.7686H33.0558C38.5852 42.7686 43.0676 38.2861 43.0676 32.7567V10.0631C43.0676 4.53373 38.5852 0.0512695 33.0558 0.0512695Z" fill="url(#paint0_radial_37_637)"/>
<path d="M33.0558 0.0512695H10.3622C4.83281 0.0512695 0.350342 4.53373 0.350342 10.0631V32.7567C0.350342 38.2861 4.83281 42.7686 10.3622 42.7686H33.0558C38.5852 42.7686 43.0676 38.2861 43.0676 32.7567V10.0631C43.0676 4.53373 38.5852 0.0512695 33.0558 0.0512695Z" fill="url(#paint1_radial_37_637)"/>
<path d="M21.7106 4.72314C17.1789 4.72314 16.6101 4.743 14.8303 4.82393C13.0539 4.90536 11.8413 5.18653 10.7804 5.59918C9.68273 6.02535 8.75179 6.59553 7.82436 7.5233C6.89609 8.45089 6.32592 9.38183 5.89841 10.479C5.48459 11.5402 5.20309 12.7533 5.12316 14.5289C5.04356 16.3089 5.02271 16.8779 5.02271 21.4097C5.02271 25.9416 5.04273 26.5086 5.12349 28.2884C5.20525 30.0648 5.48642 31.2774 5.89874 32.3384C6.32525 33.436 6.89542 34.3669 7.82319 35.2944C8.75046 36.2226 9.68139 36.7941 10.7782 37.2203C11.84 37.633 13.0527 37.9141 14.8288 37.9956C16.6088 38.0765 17.1771 38.0964 21.7086 38.0964C26.2408 38.0964 26.8079 38.0765 28.5876 37.9956C30.3641 37.9141 31.578 37.633 32.6398 37.2203C33.7369 36.7941 34.6665 36.2226 35.5936 35.2944C36.5219 34.3669 37.0919 33.436 37.5195 32.3389C37.9297 31.2774 38.2114 30.0645 38.2948 28.2887C38.3747 26.509 38.3956 25.9416 38.3956 21.4097C38.3956 16.8779 38.3747 16.3092 38.2948 14.5293C38.2114 12.7528 37.9297 11.5404 37.5195 10.4795C37.0919 9.38183 36.5219 8.45089 35.5936 7.5233C34.6655 6.5952 33.7372 6.02502 32.6388 5.59935C31.575 5.18653 30.3617 4.90519 28.5853 4.82393C26.8053 4.743 26.2387 4.72314 21.7055 4.72314H21.7106ZM20.2137 7.73021C20.6581 7.72954 21.1538 7.73021 21.7106 7.73021C26.1661 7.73021 26.6941 7.74623 28.4535 7.82615C30.0804 7.90058 30.9634 8.1724 31.5516 8.40084C32.3304 8.70319 32.8856 9.06479 33.4692 9.64898C34.0533 10.233 34.4147 10.7892 34.7179 11.5679C34.9463 12.1553 35.2185 13.0383 35.2926 14.6653C35.3725 16.4243 35.3899 16.9526 35.3899 21.4059C35.3899 25.8592 35.3725 26.3876 35.2926 28.1466C35.2182 29.7735 34.9463 30.6565 34.7179 31.2441C34.4155 32.0228 34.0533 32.5773 33.4692 33.161C32.8852 33.745 32.3307 34.1065 31.5516 34.409C30.9641 34.6384 30.0804 34.9096 28.4535 34.984C26.6944 35.0639 26.1661 35.0813 21.7106 35.0813C17.255 35.0813 16.7269 35.0639 14.968 34.984C13.3411 34.9089 12.458 34.6371 11.8693 34.4086C11.0907 34.1061 10.5344 33.7447 9.95038 33.1607C9.36635 32.5766 9.00492 32.0218 8.70173 31.2427C8.47329 30.6552 8.20114 29.7722 8.12705 28.1452C8.04712 26.3861 8.0311 25.8579 8.0311 21.4017C8.0311 16.9458 8.04712 16.4202 8.12705 14.6611C8.20147 13.0342 8.47329 12.1511 8.70173 11.5629C9.00426 10.7842 9.36635 10.228 9.95054 9.64398C10.5346 9.05995 11.0907 8.69835 11.8695 8.39533C12.4577 8.16589 13.3411 7.89474 14.968 7.81998C16.5073 7.7504 17.1039 7.72954 20.2137 7.72604V7.73021ZM30.6179 10.5008C29.5124 10.5008 28.6155 11.3969 28.6155 12.5025C28.6155 13.608 29.5124 14.5049 30.6179 14.5049C31.7233 14.5049 32.6202 13.608 32.6202 12.5025C32.6202 11.3971 31.7233 10.5002 30.6179 10.5002V10.5008ZM21.7106 12.8404C16.9784 12.8404 13.1415 16.6773 13.1415 21.4097C13.1415 26.1422 16.9784 29.9772 21.7106 29.9772C26.4431 29.9772 30.2786 26.1422 30.2786 21.4097C30.2786 16.6775 26.4428 12.8404 21.7103 12.8404H21.7106ZM21.7106 15.8475C24.7825 15.8475 27.2729 18.3376 27.2729 21.4097C27.2729 24.4816 24.7825 26.972 21.7106 26.972C18.6387 26.972 16.1486 24.4816 16.1486 21.4097C16.1486 18.3376 18.6387 15.8475 21.7106 15.8475Z" fill="white"/>
</g>
<defs>
<radialGradient id="paint0_radial_37_637" cx="0" cy="0" r="1" gradientUnits="userSpaceOnUse" gradientTransform="translate(11.6971 46.0586) rotate(-90) scale(42.336 39.3758)">
<stop stop-color="#FFDD55"/>
<stop offset="0.1" stop-color="#FFDD55"/>
<stop offset="0.5" stop-color="#FF543E"/>
<stop offset="1" stop-color="#C837AB"/>
</radialGradient>
<radialGradient id="paint1_radial_37_637" cx="0" cy="0" r="1" gradientUnits="userSpaceOnUse" gradientTransform="translate(-6.80497 3.12842) rotate(78.681) scale(18.9244 78.0071)">
<stop stop-color="#3771C8"/>
<stop offset="0.128" stop-color="#3771C8"/>
<stop offset="1" stop-color="#6600FF" stop-opacity="0"/>
</radialGradient>
<clipPath id="clip0_37_637">
<rect width="42.7173" height="42.7173" fill="white" transform="translate(0.350342 0.0512695)"/>
</clipPath>
</defs>
</svg>
