<svg width="43" height="43" viewBox="0 0 43 43" fill="none" xmlns="http://www.w3.org/2000/svg">
<g id="logos:pinterest" clip-path="url(#clip0_37_645)">
<path id="Vector" d="M0.784912 21.4102C0.784912 29.8679 5.87076 37.1338 13.1484 40.3283C13.0903 38.886 13.1381 37.1546 13.5079 35.5853C13.905 33.9086 16.1656 24.3306 16.1656 24.3306C16.1656 24.3306 15.5058 23.0117 15.5058 21.0626C15.5058 18.0017 17.2798 15.7157 19.4892 15.7157C21.3679 15.7157 22.2756 17.1268 22.2756 18.8166C22.2756 20.7052 21.071 23.5302 20.4516 26.1467C19.9341 28.3377 21.5501 30.1248 23.7116 30.1248C27.625 30.1248 30.2607 25.0985 30.2607 19.1432C30.2607 14.6163 27.2117 11.228 21.6661 11.228C15.4007 11.228 11.4975 15.9005 11.4975 21.1196C11.4975 22.9191 12.0281 24.1881 12.8591 25.1708C13.2412 25.6221 13.2943 25.8036 13.156 26.3219C13.0569 26.702 12.8294 27.6169 12.7352 27.9795C12.5977 28.5026 12.1738 28.6896 11.701 28.4965C8.81516 27.3184 7.47116 24.1581 7.47116 20.6055C7.47116 14.7382 12.4195 7.70271 22.233 7.70271C30.1188 7.70271 35.3091 13.4092 35.3091 19.5347C35.3091 27.6372 30.8045 33.6904 24.1644 33.6904C21.9345 33.6904 19.8369 32.4851 19.1184 31.1159C19.1184 31.1159 17.9193 35.8748 17.6653 36.7938C17.2274 38.3863 16.3702 39.978 15.5865 41.2185C17.4869 41.7805 19.4584 42.0657 21.4402 42.0655C32.846 42.0655 42.0941 32.818 42.0941 21.4102C42.0941 10.0029 32.846 0.755371 21.4402 0.755371C10.0333 0.755371 0.784912 10.0029 0.784912 21.4102Z" fill="#CB1F27"/>
</g>
<defs>
<clipPath id="clip0_37_645">
<rect width="41.309" height="41.309" fill="white" transform="translate(0.784912 0.755371)"/>
</clipPath>
</defs>
</svg>
