<svg width="32" height="32" viewBox="0 0 32 32" fill="none" xmlns="http://www.w3.org/2000/svg">
<path d="M24.0413 22.1558L29.752 27.8652L27.8653 29.7518L22.156 24.0412C20.0316 25.7441 17.3893 26.6704 14.6667 26.6665C8.04266 26.6665 2.66666 21.2905 2.66666 14.6665C2.66666 8.0425 8.04266 2.6665 14.6667 2.6665C21.2907 2.6665 26.6667 8.0425 26.6667 14.6665C26.6705 17.3892 25.7443 20.0315 24.0413 22.1558ZM21.3667 21.1665C23.0588 19.4263 24.0038 17.0937 24 14.6665C24 9.5105 19.8227 5.33317 14.6667 5.33317C9.51066 5.33317 5.33332 9.5105 5.33332 14.6665C5.33332 19.8225 9.51066 23.9998 14.6667 23.9998C17.0939 24.0037 19.4265 23.0587 21.1667 21.3665L21.3667 21.1665Z" fill="#E0E0E0"/>
</svg>
