<svg width="49" height="49" viewBox="0 0 49 49" fill="none" xmlns="http://www.w3.org/2000/svg">
<g clip-path="url(#clip0_37_633)">
<path d="M1.03169 24.1176C1.03056 28.2194 2.10031 32.2245 4.13442 35.7547L0.837158 47.8162L13.1574 44.5797C16.565 46.4383 20.383 47.4121 24.2629 47.4124H24.2731C37.0812 47.4124 47.5073 36.9704 47.5128 24.1359C47.5153 17.9167 45.1 12.0686 40.7118 7.66873C36.3244 3.26927 30.4893 0.845124 24.2722 0.842285C11.4625 0.842285 1.03717 11.2837 1.03188 24.1176" fill="url(#paint0_linear_37_633)"/>
<path d="M0.202089 24.1101C0.200767 28.3595 1.30886 32.5079 3.4155 36.1645L0 48.6583L12.762 45.3059C16.2784 47.2267 20.2374 48.2394 24.266 48.2409H24.2764C37.544 48.2409 48.3447 37.4234 48.3503 24.1294C48.3526 17.6868 45.8505 11.6284 41.3055 7.07092C36.76 2.51403 30.7162 0.00264913 24.2764 0C11.0065 0 0.207378 10.816 0.202089 24.1101ZM7.80216 35.5347L7.32564 34.7769C5.3225 31.5858 4.26522 27.8982 4.26673 24.1117C4.27107 13.0619 13.2469 4.0721 24.284 4.0721C29.6289 4.07437 34.6521 6.16189 38.4302 9.94939C42.2081 13.7373 44.287 18.7725 44.2857 24.1279C44.2808 35.1777 35.3048 44.1686 24.2764 44.1686H24.2685C20.6775 44.1667 17.1557 43.2006 14.0843 41.3747L13.3534 40.9405L5.78013 42.9298L7.80216 35.5345V35.5347Z" fill="url(#paint1_linear_37_633)"/>
<path d="M18.2596 14.0304C17.809 13.027 17.3347 13.0067 16.9062 12.9891C16.5553 12.974 16.1541 12.9751 15.7533 12.9751C15.3522 12.9751 14.7004 13.1263 14.1495 13.729C13.598 14.3322 12.0439 15.79 12.0439 18.755C12.0439 21.7201 14.1995 24.5855 14.5 24.988C14.8009 25.3897 18.6613 31.6689 24.7754 34.0846C29.8567 36.092 30.8908 35.6928 31.9936 35.5921C33.0965 35.4918 35.5526 34.1347 36.0537 32.7274C36.5551 31.3204 36.5551 30.1143 36.4048 29.8622C36.2544 29.6111 35.8533 29.4603 35.2517 29.1591C34.65 28.8576 31.6927 27.3997 31.1414 27.1985C30.5899 26.9976 30.1889 26.8973 29.7878 27.5007C29.3866 28.1032 28.2347 29.4603 27.8836 29.8622C27.5329 30.2651 27.1818 30.3152 26.5804 30.0138C25.9785 29.7114 24.0412 29.0758 21.7429 27.0229C19.9547 25.4255 18.7475 23.4528 18.3965 22.8494C18.0456 22.2469 18.359 21.9203 18.6606 21.62C18.9308 21.35 19.2623 20.9163 19.5634 20.5645C19.8633 20.2126 19.9634 19.9615 20.164 19.5595C20.3647 19.1572 20.2643 18.8053 20.1141 18.5039C19.9634 18.2024 18.7945 15.222 18.2596 14.0304Z" fill="white"/>
</g>
<defs>
<linearGradient id="paint0_linear_37_633" x1="2334.62" y1="4698.23" x2="2334.62" y2="0.842285" gradientUnits="userSpaceOnUse">
<stop stop-color="#1FAF38"/>
<stop offset="1" stop-color="#60D669"/>
</linearGradient>
<linearGradient id="paint1_linear_37_633" x1="2417.52" y1="4865.83" x2="2417.52" y2="0" gradientUnits="userSpaceOnUse">
<stop stop-color="#F9F9F9"/>
<stop offset="1" stop-color="white"/>
</linearGradient>
<clipPath id="clip0_37_633">
<rect width="48.3503" height="48.8198" fill="white"/>
</clipPath>
</defs>
</svg>
